# xmcd
#
# Track frame offsets: 
#        150
#        11722
#        27162
#        43524
#        62655
#        74146
#        93162
#        111575
#        129166
#        147206
#        167537
#        183758
#        203300
#        224681
#        239235
#        257914
#        278997
#        300844
#        312068
#        331361
#
# Disc length: 4604 seconds
#
# Revision: 0
# Processed by: cddbd v1.5.2PL0 Copyright (c) Steve Scherf et al.
# Submitted via: ExactAudioCopyFreeDBPlugin 1.0
#
DISCID=2011fa14
DTITLE=Celtic Spirit - Celtic Moods
DYEAR=2015
DGENRE=Folk
TTITLE0=Joe Giltrap - Time In A Bottle
TTITLE1=Celtic Angels - When Irish Eyes Are Smiling
TTITLE2=Sioban McCarthy - Ailein Duinn
TTITLE3=Celtic Fayre - Danny Boy
TTITLE4=Celtic Fayre - Them From Braveheart
TTITLE5=Star Of The County Down
TTITLE6=Celtic Fayre - Fermoy Lasses
TTITLE7=Earthjig
TTITLE8=Riverdance
TTITLE9=Celtic Fayre - My Lagan Love
TTITLE10=Jenny Howe - May It Be
TTITLE11=How Can I Keep From Singing?
TTITLE12=Celtic Fayre - Fields Of Gold
TTITLE13=Celtic Angels - Galway Bay
TTITLE14=Celtic Angels - Irish Heartbeat
TTITLE15=Celtic Fayre - Theme From Good Will Hunting
TTITLE16=Lyra - Runaway
TTITLE17=Joe Giltrap - Blackbird
TTITLE18=Will Ye Go, Lassie, Go?
TTITLE19=Scarborough Fair
EXTD=
EXTT0=
EXTT1=
EXTT2=
EXTT3=
EXTT4=
EXTT5=
EXTT6=
EXTT7=
EXTT8=
EXTT9=
EXTT10=
EXTT11=
EXTT12=
EXTT13=
EXTT14=
EXTT15=
EXTT16=
EXTT17=
EXTT18=
EXTT19=
PLAYORDER=
